<?xml version="1.0" encoding="UTF-8"?>
<svg version="1.1" xmlns="http://www.w3.org/2000/svg" width="396" height="396">
<path d="M0 0 C130.68 0 261.36 0 396 0 C396 130.68 396 261.36 396 396 C265.32 396 134.64 396 0 396 C0 265.32 0 134.64 0 0 Z " fill="#000000" transform="translate(0,0)"/>
<path d="M0 0 C18.48 0 36.96 0 56 0 C56 2.31 56 4.62 56 7 C48.08 7.495 48.08 7.495 40 8 C40 12.6578275 40.10728659 15.11819074 41.4375 19.3125 C41.70433594 20.17488281 41.97117188 21.03726563 42.24609375 21.92578125 C42.8204211 23.9614286 42.8204211 23.9614286 44 25 C44.04063832 26.66617115 44.042721 28.33388095 44 30 C44.66 30 45.32 30 46 30 C46.495 33.96 46.495 33.96 47 38 C47.66 38 48.32 38 49 38 C49.67548578 40.05962852 50.34004312 42.12284322 51 44.1875 C51.37125 45.33605469 51.7425 46.48460937 52.125 47.66796875 C52.90630553 50.64320812 53.18363306 52.95283896 53 56 C53.66 56 54.32 56 55 56 C58.22385295 61.52660506 59.31675402 67.66491954 59 74 C59.66 74 60.32 74 61 74 C64.42857143 82.42857143 64.42857143 82.42857143 64 87 C64.66 87 65.32 87 66 87 C67.25664978 89.90600261 68 91.79604584 68 95 C68.66 95 69.32 95 70 95 C70 93.35 70 91.7 70 90 C70.66 90 71.32 90 72 90 C72.103125 88.906875 72.20625 87.81375 72.3125 86.6875 C73.25986369 79.18864941 75.08679099 72.46530184 79 66 C79.82038067 63.02738608 80.4386537 60.03127004 81 57 C81.66 57 82.32 57 83 57 C83.07347656 56.07767578 83.07347656 56.07767578 83.1484375 55.13671875 C83.22320312 54.32847656 83.29796875 53.52023438 83.375 52.6875 C83.44460938 51.88699219 83.51421875 51.08648437 83.5859375 50.26171875 C84 48 84 48 86 45 C86.47077049 43.18417098 86.93507082 41.36630792 87.359375 39.5390625 C88.68198608 34.29700639 90.38069314 29.15662768 92 24 C92.66 24 93.32 24 94 24 C94 19.38 94 14.76 94 10 C93.34 10 92.68 10 92 10 C92 9.34 92 8.68 92 8 C91.01 8 90.02 8 89 8 C89 7.34 89 6.68 89 6 C84.38 6 79.76 6 75 6 C75 4.02 75 2.04 75 0 C90.51 0 106.02 0 122 0 C122 1.98 122 3.96 122 6 C121.2265625 5.96777344 120.453125 5.93554688 119.65625 5.90234375 C115.01374147 5.95405486 111.3761797 6.03753164 107.4921875 8.75390625 C102.73678716 13.79884203 100.86710338 18.17156085 100 25 C99.34 25 98.68 25 98 25 C98.020625 26.0725 98.04125 27.145 98.0625 28.25 C98.0142016 31.14790424 97.86844115 33.28612141 97 36 C96.34 36 95.68 36 95 36 C94.92652344 36.90492188 94.92652344 36.90492188 94.8515625 37.828125 C94.77679688 38.62734375 94.70203125 39.4265625 94.625 40.25 C94.52058594 41.43335938 94.52058594 41.43335938 94.4140625 42.640625 C93.98164369 45.10459632 93.17516345 46.80847897 92 49 C91.5601723 50.59014631 91.12178234 52.18070711 90.69140625 53.7734375 C89.81385608 56.59944653 88.71877283 59.31301601 87.625 62.0625 C84.9322273 68.93426416 82.9112392 75.87823159 81 83 C80.34 83 79.68 83 79 83 C78.67 86.3 78.34 89.6 78 93 C77.34 93 76.68 93 76 93 C75.67 95.97 75.34 98.94 75 102 C74.34 102 73.68 102 73 102 C72.814375 103.794375 72.814375 103.794375 72.625 105.625 C72.16738648 109.2923534 71.26028984 112.51566926 70 116 C68.92991997 119.65086129 67.88793338 123.3002776 67 127 C65.02 126.67 63.04 126.34 61 126 C60.86722656 125.39671875 60.73445313 124.7934375 60.59765625 124.171875 C60.42105469 123.37265625 60.24445313 122.5734375 60.0625 121.75 C59.88847656 120.96109375 59.71445312 120.1721875 59.53515625 119.359375 C59.052444 117.23121297 58.53836822 115.11467158 58 113 C57.34 113 56.68 113 56 113 C55.7525 111.72125 55.505 110.4425 55.25 109.125 C54.25403057 104.56374868 52.66344028 100.43783713 50.8046875 96.1640625 C50 94 50 94 50 91 C49.34 91 48.68 91 48 91 C47.68546875 89.88882813 47.3709375 88.77765625 47.046875 87.6328125 C45.00149825 80.49248589 42.93367001 73.49877804 40.03125 66.65234375 C38.67214416 63.15676472 37.59105084 59.58570818 36.5 56 C34.1878901 48.44148336 31.69751601 41.10381759 27.9375 34.125 C25.75547166 29.92226058 24.8469867 25.56865108 23.7890625 20.9765625 C22.83869432 17.39151025 21.46969976 14.17530531 19.8671875 10.83984375 C19 9 19 9 18 6 C12.06 6 6.12 6 0 6 C0 4.02 0 2.04 0 0 Z " fill="#6CB34E" transform="translate(205,142)"/>
<path d="M0 0 C18.81 0 37.62 0 57 0 C57 1.98 57 3.96 57 6 C55.85660156 6.06058594 54.71320313 6.12117187 53.53515625 6.18359375 C52.04425695 6.26798428 50.55337225 6.35263302 49.0625 6.4375 C47.93038086 6.49647461 47.93038086 6.49647461 46.77539062 6.55664062 C43.08055813 6.44038024 43.08055813 6.44038024 40 8 C40.05074172 13.91141041 41.51531767 18.64837652 44 24 C44.78938525 26.31760397 45.5301692 28.64551855 46.25390625 30.984375 C47.00990233 33.26550502 47.00990233 33.26550502 49 36 C49.43831629 38.09043156 49.87532526 40.18114848 50.3046875 42.2734375 C51.40998221 46.60768305 53.11715044 50.68870052 54.7578125 54.84375 C59.49535906 66.88128969 59.49535906 66.88128969 59 72 C59.66 72 60.32 72 61 72 C61 73.32 61 74.64 61 76 C61.66 76 62.32 76 63 76 C63.495 80.455 63.495 80.455 64 85 C64.66 85 65.32 85 66 85 C66.99 88.3 67.98 91.6 69 95 C69.40992188 93.83082031 69.81984375 92.66164063 70.2421875 91.45703125 C70.78640215 89.90883441 71.3306761 88.36065843 71.875 86.8125 C72.14441406 86.04357422 72.41382813 85.27464844 72.69140625 84.48242188 C73.78788463 81.36681866 74.88838787 78.27346889 76.13671875 75.21484375 C76.97941281 73.05281873 77.49531183 71.02411059 77.9375 68.75 C78.93556029 64.02689578 80.40638726 59.5507444 82 55 C82.5878125 53.2365625 82.5878125 53.2365625 83.1875 51.4375 C83.455625 50.633125 83.72375 49.82875 84 49 C84.66 49 85.32 49 86 49 C86.495 44.05 86.495 44.05 87 39 C87.66 39 88.32 39 89 39 C89 38.01 89 37.02 89 36 C89.66 36 90.32 36 91 36 C91.33 32.37 91.66 28.74 92 25 C92.66 25 93.32 25 94 25 C93.91320858 22.53991222 93.80639045 20.08356483 93.6875 17.625 C93.66494141 16.92632812 93.64238281 16.22765625 93.61914062 15.5078125 C93.53015704 13.22711059 93.53015704 13.22711059 93 10 C92.01 9.34 91.02 8.68 90 8 C90 7.34 90 6.68 90 6 C85.38 6 80.76 6 76 6 C76 4.02 76 2.04 76 0 C91.51 0 107.02 0 123 0 C123 2.31 123 4.62 123 7 C121.57107422 7.00386719 121.57107422 7.00386719 120.11328125 7.0078125 C113.34779142 7.00745468 113.34779142 7.00745468 107.0625 9.0859375 C104.19175803 12.33346436 102.95107855 16.50905576 101.74609375 20.59375 C100.97977845 23.06521715 100.02214688 25.37399066 99 27.75 C96.57958727 33.65208334 95.28916972 39.769013 94 46 C93.34 46 92.68 46 92 46 C91.814375 46.9590625 91.814375 46.9590625 91.625 47.9375 C90.8020178 51.97011276 89.90114025 55.98423907 89 60 C88.34 60 87.68 60 87 60 C86.67 63.3 86.34 66.6 86 70 C85.34 70 84.68 70 84 70 C83.67 73.63 83.34 77.26 83 81 C82.34 81 81.68 81 81 81 C79.85351213 84.13373352 79.00048754 86.99630862 78.5625 90.3125 C77.87877601 94.7946906 76.52252387 98.74041987 75 103 C74.51247592 104.38131822 74.02554911 105.76284731 73.5390625 107.14453125 C72.74744996 109.39192435 71.95475992 111.6388913 71.1574707 113.88427734 C69.72875288 117.90944616 68.33542948 121.94259464 67 126 C65.35 125.67 63.7 125.34 62 125 C61.67 123.35 61.34 121.7 61 120 C60.34 120 59.68 120 59 120 C58.67386719 118.81921875 58.34773438 117.6384375 58.01171875 116.421875 C57.57076271 114.86445579 57.12933147 113.30717108 56.6875 111.75 C56.47416016 110.97269531 56.26082031 110.19539063 56.04101562 109.39453125 C54.85261399 105.24399419 53.62592633 102.44833183 51 99 C50.19140625 95.8984375 50.19140625 95.8984375 49.5625 92.375 C48.49147626 86.91163955 47.04598442 82.06127614 44.76953125 76.98828125 C44 75 44 75 44 72 C43.34 72 42.68 72 42 72 C41.51933465 70.10454608 41.04053257 68.20861961 40.5625 66.3125 C40.29566406 65.25675781 40.02882812 64.20101562 39.75390625 63.11328125 C39.10102068 60.4171683 38.52058807 57.7242424 38 55 C37.34 55 36.68 55 36 55 C35.66226563 53.81921875 35.32453125 52.6384375 34.9765625 51.421875 C34.52624434 49.86452471 34.07571229 48.30723627 33.625 46.75 C33.40328125 45.97269531 33.1815625 45.19539063 32.953125 44.39453125 C32.73398438 43.64042969 32.51484375 42.88632813 32.2890625 42.109375 C32.09006348 41.41811523 31.89106445 40.72685547 31.68603516 40.01464844 C31.03631304 37.94547571 31.03631304 37.94547571 29.92724609 35.91503906 C28.76317052 33.51087667 28.85351363 31.6367546 29 29 C28.34 29 27.68 29 27 29 C26.773125 27.72125 26.54625 26.4425 26.3125 25.125 C24.84953752 18.47325693 21.75895178 12.63842767 18 7 C16.07558585 6.49468134 16.07558585 6.49468134 13.8671875 6.48828125 C12.65869141 6.43510742 12.65869141 6.43510742 11.42578125 6.38085938 C10.58402344 6.35830078 9.74226563 6.33574219 8.875 6.3125 C8.02550781 6.27833984 7.17601563 6.24417969 6.30078125 6.20898438 C4.20098895 6.12640827 2.10051436 6.06153022 0 6 C0 4.02 0 2.04 0 0 Z " fill="#6CB24D" transform="translate(72,142)"/>
<path d="M0 0 C17.82 0 35.64 0 54 0 C54 1.32 54 2.64 54 4 C52.68 4 51.36 4 50 4 C50 3.34 50 2.68 50 2 C42.08 2.33 34.16 2.66 26 3 C26.66 4.98 27.32 6.96 28 9 C27.34 9 26.68 9 26 9 C26 10.32 26 11.64 26 13 C25.34 13 24.68 13 24 13 C24 13.99 24 14.98 24 16 C24.66 16 25.32 16 26 16 C26 15.34 26 14.68 26 14 C26.66 14 27.32 14 28 14 C28.66 19.94 29.32 25.88 30 32 C29.34 32 28.68 32 28 32 C27 28 26 24 25 20 C24.34 20 23.68 20 23 20 C22.18618205 18.06305322 21.37399084 16.12542289 20.5625 14.1875 C20.11003906 13.10855469 19.65757812 12.02960938 19.19140625 10.91796875 C18.39624987 8.9704874 17.66520352 6.99561057 17 5 C11.39 5 5.78 5 0 5 C0 3.35 0 1.7 0 0 Z " fill="#70B854" transform="translate(206,143)"/>
<path d="M0 0 C18.48 0 36.96 0 56 0 C56 2.31 56 4.62 56 7 C53.58303128 7.05411124 51.16728213 7.09372278 48.75 7.125 C48.06808594 7.14175781 47.38617188 7.15851563 46.68359375 7.17578125 C42.9391765 7.21213482 40.17647273 7.07944349 37 5 C36.814375 5.928125 36.814375 5.928125 36.625 6.875 C36 9 36 9 34 11 C33.79425535 14.25670691 33.79425535 14.25670691 33.9375 17.9375 C34.0984556 24.7046332 34.0984556 24.7046332 33 28 C32.855625 29.155 32.71125 30.31 32.5625 31.5 C32 35 32 35 30 38 C26.74288723 32.22125154 25.30656385 27.62177926 25 21 C27.04219706 22.69179328 27.91793306 23.63727666 28.51171875 26.26171875 C28.56972656 27.06222656 28.62773437 27.86273438 28.6875 28.6875 C28.78611328 29.89986328 28.78611328 29.89986328 28.88671875 31.13671875 C28.92410156 31.75160156 28.96148437 32.36648437 29 33 C29.66 33 30.32 33 31 33 C30.855625 32.3709375 30.71125 31.741875 30.5625 31.09375 C29.36985553 25.59433381 28.7917285 20.62333057 29 15 C28.34 15 27.68 15 27 15 C27 15.66 27 16.32 27 17 C26.34 17 25.68 17 25 17 C25 16.01 25 15.02 25 14 C25.66 14 26.32 14 27 14 C27 12.68 27 11.36 27 10 C27.66 10 28.32 10 29 10 C28.34 8.02 27.68 6.04 27 4 C35.01659634 2.87486367 42.92138585 2.90420616 51 3 C51 3.66 51 4.32 51 5 C52.32 5 53.64 5 55 5 C55 3.68 55 2.36 55 1 C37.18 1 19.36 1 1 1 C1 2.65 1 4.3 1 6 C0.67 6 0.34 6 0 6 C0 4.02 0 2.04 0 0 Z " fill="#5A8E44" transform="translate(205,142)"/>
<path d="M0 0 C1.65 0 3.3 0 5 0 C4.67 3.3 4.34 6.6 4 10 C1.36 10.33 -1.28 10.66 -4 11 C-3.67 11.66 -3.34 12.32 -3 13 C-3.66 13.66 -4.32 14.32 -5 15 C-5 15.99 -5 16.98 -5 18 C-4.34 18 -3.68 18 -3 18 C-3 18.99 -3 19.98 -3 21 C-3.639375 20.814375 -4.27875 20.62875 -4.9375 20.4375 C-5.9584375 20.2209375 -5.9584375 20.2209375 -7 20 C-7.33 20.33 -7.66 20.66 -8 21 C-9.32 21 -10.64 21 -12 21 C-14.00401011 21.30830925 -16.00511766 21.63729412 -18 22 C-17.67 22.99 -17.34 23.98 -17 25 C-17.474375 25.763125 -17.94875 26.52625 -18.4375 27.3125 C-20.26992936 30.46427849 -20.25005831 32.41583089 -20 36 C-19.34 36.33 -18.68 36.66 -18 37 C-18.17625835 39.37948772 -18.69719773 40.70225849 -20.40234375 42.37890625 C-21.90649092 43.62115486 -23.45129851 44.81376056 -25 46 C-25.93423645 42.98968256 -26.04449911 42.13349732 -25 39 C-24.34 39 -23.68 39 -23 39 C-22.67 35.37 -22.34 31.74 -22 28 C-21.34 28 -20.68 28 -20 28 C-20.020625 26.72125 -20.04125 25.4425 -20.0625 24.125 C-19.39413207 18.4438726 -16.65427157 14.9681471 -12.765625 10.91015625 C-8.06626753 7.66441359 -3.46460258 8.16782702 2 9 C2 7.02 2 5.04 2 3 C-0.31 3 -2.62 3 -5 3 C-5 2.67 -5 2.34 -5 2 C-3.35 1.67 -1.7 1.34 0 1 C0 0.67 0 0.34 0 0 Z " fill="#060E05" transform="translate(325,139)"/>
<path d="M0 0 C0.33 0 0.66 0 1 0 C1 1.65 1 3.3 1 5 C1.66 5 2.32 5 3 5 C6.26009285 11.17089003 8.72171593 17.4089148 11 24 C11.30292969 24.83402344 11.60585937 25.66804688 11.91796875 26.52734375 C13.31224084 30.46141663 14.41041881 33.75900565 14 38 C14.66 38 15.32 38 16 38 C16.33 40.97 16.66 43.94 17 47 C16.34 47 15.68 47 15 47 C15 46.34 15 45.68 15 45 C14.360625 44.7525 13.72125 44.505 13.0625 44.25 C11 43 11 43 10.25 40.875 C10.1675 40.25625 10.085 39.6375 10 39 C10.66 39 11.32 39 12 39 C11.34 37.35 10.68 35.7 10 34 C9.01 34 8.02 34 7 34 C6.67 33.34 6.34 32.68 6 32 C4.515 32.495 4.515 32.495 3 33 C3.144375 32.24074219 3.28875 31.48148438 3.4375 30.69921875 C3.623125 29.70535156 3.80875 28.71148437 4 27.6875 C4.185625 26.70136719 4.37125 25.71523437 4.5625 24.69921875 C5.07999796 21.96218195 5.07999796 21.96218195 5 19 C4.01 19 3.02 19 2 19 C2 18.01 2 17.02 2 16 C2.99 16 3.98 16 5 16 C3.62514468 14.45833358 3.62514468 14.45833358 2 13 C1.34 13 0.68 13 0 13 C-0.33 13.99 -0.66 14.98 -1 16 C-1.22281874 14.08496326 -1.42771076 12.16783494 -1.625 10.25 C-1.74101563 9.18265625 -1.85703125 8.1153125 -1.9765625 7.015625 C-2.00029475 3.96207601 -1.61420985 2.53837579 0 0 Z " fill="#73B957" transform="translate(117,176)"/>
<path d="M0 0 C1.32 0.33 2.64 0.66 4 1 C3.67 1.66 3.34 2.32 3 3 C2.92883618 5.37402501 2.91590915 7.75000677 2.9375 10.125 C2.94652344 11.40632812 2.95554688 12.68765625 2.96484375 14.0078125 C2.97644531 14.99523437 2.98804688 15.98265625 3 17 C2.34 17 1.68 17 1 17 C0.90951328 19.10128343 0.90951328 19.10128343 1.6875 21.4375 C2 24 2 24 0.6875 25.8125 C-1 27 -1 27 -3 27 C-2.67 27.99 -2.34 28.98 -2 30 C-2.66 30 -3.32 30 -4 30 C-4 31.32 -4 32.64 -4 34 C-2.68 34 -1.36 34 0 34 C1.13764351 38.26616316 2 41.56486311 2 46 C2.66 46 3.32 46 4 46 C3.505 48.475 3.505 48.475 3 51 C0 50 0 50 -1.09765625 48.43359375 C-5.68895062 38.935005 -6.52406165 31.48369679 -5 21 C-4.67 20.67 -4.34 20.34 -4 20 C-4.00911495 16.43605496 -4.13348277 12.88199356 -4.2578125 9.3203125 C-4 6 -4 6 -2.5546875 4.2421875 C-2.04164063 3.83226562 -1.52859375 3.42234375 -1 3 C-0.67 2.01 -0.34 1.02 0 0 Z " fill="#73B959" transform="translate(242,147)"/>
<path d="M0 0 C14.85 0 29.7 0 45 0 C45 0.66 45 1.32 45 2 C37.41 2 29.82 2 22 2 C24.97 2.495 24.97 2.495 28 3 C27.67 3.556875 27.34 4.11375 27 4.6875 C25.8690399 7.30284522 25.84337026 9.1806646 26 12 C25.34 12 24.68 12 24 12 C24 12.66 24 13.32 24 14 C22.0625 13.6875 22.0625 13.6875 20 13 C19.67 12.01 19.34 11.02 19 10 C18.34 9.67 17.68 9.34 17 9 C17 8.01 17 7.02 17 6 C16.34 6 15.68 6 15 6 C15 5.34 15 4.68 15 4 C10.05 4 5.1 4 0 4 C0 2.68 0 1.36 0 0 Z " fill="#75BC52" transform="translate(281,143)"/>
<path d="M0 0 C14.85 0 29.7 0 45 0 C45 1.65 45 3.3 45 5 C42.525 4.505 42.525 4.505 40 4 C40 3.34 40 2.68 40 2 C33.61224618 1.51210968 33.61224618 1.51210968 28 4 C27.31867549 5.66072849 26.65257873 7.327767 26 9 C23.875 10.8125 23.875 10.8125 22 12 C21.06576355 8.98968256 20.95550089 8.13349732 22 5 C20.68 5 19.36 5 18 5 C18.33 6.65 18.66 8.3 19 10 C17 9 15 8 13 7 C13 6.34 13 5.68 13 5 C8.71 4.67 4.42 4.34 0 4 C0 2.68 0 1.36 0 0 Z " fill="#74BB53" transform="translate(149,143)"/>
<path d="M0 0 C0.66 0 1.32 0 2 0 C2.66 1.65 3.32 3.3 4 5 C3.34 5 2.68 5 2 5 C2 5.99 2 6.98 2 8 C1.34 8 0.68 8 0 8 C0 9.98 0 11.96 0 14 C-0.99 13.67 -1.98 13.34 -3 13 C-2.65772428 15.97065509 -2.65772428 15.97065509 -2 19 C-1.34 19.33 -0.68 19.66 0 20 C2 23 2 23 2 27 C1.67 27.99 1.34 28.98 1 30 C0.65179959 31.66362417 0.31595508 33.32995171 0 35 C-3.43106792 31.86356672 -4.57491172 28.32878927 -6 24 C-6.36738281 22.90816406 -6.73476562 21.81632812 -7.11328125 20.69140625 C-10.13040254 11.39120763 -10.13040254 11.39120763 -9 8 C-8.01 8.99 -7.02 9.98 -6 11 C-2.6433715 8.76224766 -2.42003986 8.06679952 -1.3125 4.375 C-1.06113281 3.55773437 -0.80976562 2.74046875 -0.55078125 1.8984375 C-0.36902344 1.27195313 -0.18726562 0.64546875 0 0 Z " fill="#72BA55" transform="translate(110,160)"/>
<path d="M0 0 C1.65 0 3.3 0 5 0 C4.95875 1.155 4.9175 2.31 4.875 3.5 C4.85912567 7.94481301 5.78206895 11.73724131 7 16 C7.66 16 8.32 16 9 16 C9 17.32 9 18.64 9 20 C9.66 20 10.32 20 11 20 C11.06058594 20.66386719 11.12117188 21.32773438 11.18359375 22.01171875 C11.79863507 28.54908081 11.79863507 28.54908081 13 35 C13.66 35 14.32 35 15 35 C14.67 36.32 14.34 37.64 14 39 C13.34 39 12.68 39 12 39 C11.28788859 36.86366578 10.57625958 34.72718959 9.8671875 32.58984375 C9.29846266 30.8913547 8.72063467 29.19588086 8.1328125 27.50390625 C7.72675781 26.32634766 7.72675781 26.32634766 7.3125 25.125 C7.06113281 24.40570313 6.80976562 23.68640625 6.55078125 22.9453125 C6 21 6 21 6 18 C5.34 18 4.68 18 4 18 C3.79503906 17.14535156 3.59007813 16.29070312 3.37890625 15.41015625 C3.10949219 14.30542969 2.84007813 13.20070312 2.5625 12.0625 C2.16224609 10.40927734 2.16224609 10.40927734 1.75390625 8.72265625 C1.27004275 6.10578746 1.27004275 6.10578746 0 5 C-0.04063832 3.33382885 -0.042721 1.66611905 0 0 Z " fill="#75B25B" transform="translate(110,196)"/>
<path d="M0 0 C1.32 0 2.64 0 4 0 C3.95875 0.721875 3.9175 1.44375 3.875 2.1875 C3.84566415 5.01266808 3.84566415 5.01266808 5 7.5 C6.0771182 10.1927955 6.16404393 12.12923119 6 15 C6.66 15 7.32 15 8 15 C8 15.66 8 16.32 8 17 C8.99 17.33 9.98 17.66 11 18 C11.28875 19.11375 11.5775 20.2275 11.875 21.375 C12.65220406 25.1436647 12.65220406 25.1436647 15.625 26.9375 C16.800625 27.4634375 16.800625 27.4634375 18 28 C17.67 28.99 17.34 29.98 17 31 C15.33333333 31 13.66666667 31 12 31 C12 32.65 12 34.3 12 36 C10.2148682 32.7298913 9.16634001 29.44653807 8.125 25.875 C6.88399851 21.73524131 5.5485686 17.73409241 3.875 13.75 C1.99200218 9.22783989 0.93014681 4.80575852 0 0 Z " fill="#6FA657" transform="translate(242,197)"/>
<path d="M0 0 C0.99 0 1.98 0 3 0 C2.67 3.63 2.34 7.26 2 11 C1.34 11 0.68 11 0 11 C0 11.99 0 12.98 0 14 C-0.66 14 -1.32 14 -2 14 C-2.33 17.3 -2.66 20.6 -3 24 C-3.66 24 -4.32 24 -5 24 C-5.33 24.99 -5.66 25.98 -6 27 C-6 25.02 -6 23.04 -6 21 C-5.34 21 -4.68 21 -4 21 C-4.66 19.35 -5.32 17.7 -6 16 C-5.34 16 -4.68 16 -4 16 C-5.11854586 12.27385847 -5.11854586 12.27385847 -8 10 C-8.33 10.66 -8.66 11.32 -9 12 C-9.66 10.35 -10.32 8.7 -11 7 C-6.25 6 -6.25 6 -4 6 C-1.2160817 4.60804085 -1.02101003 2.84424221 0 0 Z " fill="#0F1C0C" transform="translate(161,167)"/>
<path d="M0 0 C0.33 0 0.66 0 1 0 C0.7405438 6.21397598 -0.20701779 11.0970728 -2.9453125 16.68359375 C-4.74717098 20.64100886 -5.84696483 24.81587994 -7 29 C-9 28 -9 28 -10.125 25.1875 C-11 22 -11 22 -11 18 C-11.66 18 -12.32 18 -13 18 C-13.33 16.02 -13.66 14.04 -14 12 C-13.34 12 -12.68 12 -12 12 C-12 12.99 -12 13.98 -12 15 C-11.34 15 -10.68 15 -10 15 C-10 14.01 -10 13.02 -10 12 C-7 13 -7 13 -6 15 C-5.71125 14.195625 -5.4225 13.39125 -5.125 12.5625 C-4 10 -4 10 -2 9 C-1.61936779 6.6739143 -1.28730055 4.33944736 -1 2 C-0.67 1.34 -0.34 0.68 0 0 Z " fill="#0A0505" transform="translate(149,209)"/>
<path d="M0 0 C0.144375 0.61875 0.28875 1.2375 0.4375 1.875 C0.93152225 4.03258322 0.93152225 4.03258322 2 6 C3.23444647 9.7033394 2.48759386 11.35586743 1.375 14.96484375 C0.94702814 17.28748271 1.2823593 18.77232366 2 21 C1.34 21 0.68 21 0 21 C-0.33 24.63 -0.66 28.26 -1 32 C-1.33 32 -1.66 32 -2 32 C-2.66 28.37 -3.32 24.74 -4 21 C-4.66 21 -5.32 21 -6 21 C-5.32447304 15.73088968 -3.74232196 10.98695215 -2 6 C-1.608125 4.824375 -1.21625 3.64875 -0.8125 2.4375 C-0.4103125 1.2309375 -0.4103125 1.2309375 0 0 Z " fill="#6BA64E" transform="translate(156,191)"/>
<path d="M0 0 C0.66 0 1.32 0 2 0 C3.82375913 3.87548815 4.49306313 6.72678621 4 11 C2.43507462 15.30354479 0.53991847 19.1901223 -2 23 C-5.15075377 18.27386935 -5.15075377 18.27386935 -4.765625 15.01953125 C-3.55094124 9.82031667 -1.98356889 4.95892223 0 0 Z " fill="#6BAD59" transform="translate(150,212)"/>
<path d="M0 0 C0.99 0 1.98 0 3 0 C3 0.66 3 1.32 3 2 C3.66 1.34 4.32 0.68 5 0 C8.0625 -0.125 8.0625 -0.125 11 0 C11.33 0 11.66 0 12 0 C12.5898468 0.16076523 13.1796936 0.32153046 13.78741455 0.48716736 C16.05633856 1.01305814 18.07537121 1.15743411 20.40136719 1.20532227 C21.2619574 1.22526749 22.12254761 1.24521271 23.00921631 1.26576233 C23.92914368 1.28247482 24.84907104 1.29918732 25.796875 1.31640625 C27.22003021 1.3475779 27.22003021 1.3475779 28.67193604 1.37937927 C31.69788482 1.44467934 34.7239192 1.50366888 37.75 1.5625 C39.80339421 1.6057038 41.85677982 1.64931869 43.91015625 1.69335938 C48.9400168 1.80034073 53.96996332 1.90166323 59 2 C59 4.31 59 6.62 59 9 C58.67 9 58.34 9 58 9 C58 7.02 58 5.04 58 3 C39.52 3 21.04 3 2 3 C2 4.98 2 6.96 2 9 C1.01 9 0.02 9 -1 9 C-1.07427838 5.65747276 -1.06546953 3.1964086 0 0 Z " fill="#040E04" transform="translate(203,139)"/>
<path d="M0 0 C15.27295239 -1.06085557 15.27295239 -1.06085557 19.13671875 1.3125 C20.44899015 3.16706652 21.23626381 4.86405648 22 7 C22.5775 8.11375 23.155 9.2275 23.75 10.375 C25.2076834 14.60228185 25.70798259 18.55932148 26 23 C26.66 23 27.32 23 28 23 C28 24.65 28 26.3 28 28 C27.67 27.01 27.34 26.02 27 25 C26.34 25 25.68 25 25 25 C24.67 22.36 24.34 19.72 24 17 C23.34 17 22.68 17 22 17 C21.67 17.99 21.34 18.98 21 20 C21 18.02 21 16.04 21 14 C20.34 14 19.68 14 19 14 C17.875 9.25 17.875 9.25 19 7 C18.01 7 17.02 7 16 7 C14.3125 5 14.3125 5 13 3 C13.66 3 14.32 3 15 3 C15 2.34 15 1.68 15 1 C10.05 1 5.1 1 0 1 C0 0.67 0 0.34 0 0 Z " fill="#1B3216" transform="translate(73,148)"/>
<path d="M0 0 C0.66 0.33 1.32 0.66 2 1 C2.02712066 2.43739513 2.04645067 3.87493863 2.0625 5.3125 C2.07410156 6.11300781 2.08570313 6.91351563 2.09765625 7.73828125 C2 10 2 10 1 13 C0.855625 14.155 0.71125 15.31 0.5625 16.5 C0 20 0 20 -2 23 C-5.25711277 17.22125154 -6.69343615 12.62177926 -7 6 C-4.95780294 7.69179328 -4.08206694 8.63727666 -3.48828125 11.26171875 C-3.43027344 12.06222656 -3.37226563 12.86273438 -3.3125 13.6875 C-3.24675781 14.49574219 -3.18101562 15.30398437 -3.11328125 16.13671875 C-3.07589844 16.75160156 -3.03851563 17.36648437 -3 18 C-2.34 18 -1.68 18 -1 18 C-1.144375 17.34773438 -1.28875 16.69546875 -1.4375 16.0234375 C-3.52459016 6.19672131 -3.52459016 6.19672131 -3 2 C-2.01 1.34 -1.02 0.68 0 0 Z " fill="#66C342" transform="translate(237,157)"/>
<path d="M0 0 C0.5534764 2.07553648 1 3.84365964 1 6 C1.66 6.33 2.32 6.66 3 7 C3 7.66 3 8.32 3 9 C3.66 8.34 4.32 7.68 5 7 C4.31092878 10.65943647 3.43178734 14.22441959 2.4375 17.8125 C2.16808594 18.78832031 1.89867187 19.76414063 1.62109375 20.76953125 C1.41613281 21.50558594 1.21117187 22.24164063 1 23 C-2.7279444 19.57514051 -3.85597407 16.95744572 -5 12 C-4.34 11.34 -3.68 10.68 -3 10 C-2.39688385 8.31238142 -1.86149763 6.59985524 -1.375 4.875 C-1.11460937 3.96492187 -0.85421875 3.05484375 -0.5859375 2.1171875 C-0.39257812 1.41851562 -0.19921875 0.71984375 0 0 Z " fill="#67A450" transform="translate(145,225)"/>
<path d="M0 0 C1.5 1.375 1.5 1.375 3 3 C3 3.66 3 4.32 3 5 C3.99 5 4.98 5 6 5 C8.0877193 8.43859649 8.0877193 8.43859649 7.6875 11 C7.460625 11.66 7.23375 12.32 7 13 C6.814375 13.7425 6.62875 14.485 6.4375 15.25 C6.293125 15.8275 6.14875 16.405 6 17 C6.66 17 7.32 17 8 17 C8.33 16.34 8.66 15.68 9 15 C9 17.97 9 20.94 9 24 C9.66 24 10.32 24 11 24 C11 23.34 11 22.68 11 22 C11.66 22.33 12.32 22.66 13 23 C13 25.31 13 27.62 13 30 C12.01 30.33 11.02 30.66 10 31 C10 29.68 10 28.36 10 27 C9.34 27 8.68 27 8 27 C7.67386719 25.865625 7.34773437 24.73125 7.01171875 23.5625 C6.5704756 22.04161934 6.1290601 20.52078867 5.6875 19 C5.47416016 18.25621094 5.26082031 17.51242188 5.04101562 16.74609375 C3.93710418 12.95654699 2.74895902 9.24767839 1.33203125 5.5625 C0 2 0 2 0 0 Z " fill="#12270E" transform="translate(123,187)"/>
<path d="M0 0 C0.66 0 1.32 0 2 0 C3.12067256 7.11778518 2.7958955 13.02420757 1 20 C0.34 20 -0.32 20 -1 20 C-1 20.99 -1 21.98 -1 23 C-2.65 23.33 -4.3 23.66 -6 24 C-6.48990279 18.93767116 -4.7106322 14.67369154 -3 10 C-2.34 10 -1.68 10 -1 10 C-0.67 10.66 -0.34 11.32 0 12 C0.92844389 7.66726186 0.92844389 4.33273814 0 0 Z " fill="#79B75A" transform="translate(282,215)"/>
<path d="M0 0 C0.66 0 1.32 0 2 0 C2.99939172 7.22533204 2.96290189 12.95664616 1 20 C0.34 20 -0.32 20 -1 20 C-1.12375 20.928125 -1.2475 21.85625 -1.375 22.8125 C-2 26 -2 26 -4 29 C-3.73958333 26.94921875 -3.47916667 24.8984375 -3.21875 22.84765625 C-2.98040465 21.14458268 -2.98040465 21.14458268 -3 20 C-3.33 20 -3.66 20 -4 20 C-4.19294408 15.17639811 -3.75747614 11.50353262 -2 7 C-1.34 7 -0.68 7 0 7 C0 8.32 0 9.64 0 11 C1.05404945 7.01803543 0.84098656 4.01804691 0 0 Z " fill="#7CB55C" transform="translate(160,182)"/>
<path d="M0 0 C0.33 0 0.66 0 1 0 C1 1.65 1 3.3 1 5 C-2.3 5 -5.6 5 -9 5 C-9 4.67 -9 4.34 -9 4 C-15.93 3.67 -22.86 3.34 -30 3 C-30 2.67 -30 2.34 -30 2 C-24.03708985 0.96082064 -18.23208762 0.84997065 -12.1875 0.875 C-10.75760742 0.86919922 -10.75760742 0.86919922 -9.29882812 0.86328125 C-8.38939453 0.86457031 -7.47996094 0.86585938 -6.54296875 0.8671875 C-5.3058313 0.86887939 -5.3058313 0.86887939 -4.04370117 0.87060547 C-2 1 -2 1 0 2 C0 1.34 0 0.68 0 0 Z " fill="#68B04C" transform="translate(326,143)"/>
<path d="M0 0 C2.97 0.495 2.97 0.495 6 1 C5.67 3.97 5.34 6.94 5 10 C4.34 10 3.68 10 3 10 C2.67 11.32 2.34 12.64 2 14 C1.67 10.7 1.34 7.4 1 4 C0.34 4 -0.32 4 -1 4 C-0.649375 4.886875 -0.29875 5.77375 0.0625 6.6875 C1.03353583 10.11849325 1.08213689 11.66341126 0 15 C-0.66 15.99 -1.32 16.98 -2 18 C-1.67 15.69 -1.34 13.38 -1 11 C-1.66 11 -2.32 11 -3 11 C-2.67 8.36 -2.34 5.72 -2 3 C-1.34 3 -0.68 3 0 3 C0 2.01 0 1.02 0 0 Z " fill="#69A256" transform="translate(161,178)"/>
<path d="M0 0 C1.485 0.99 1.485 0.99 3 2 C3.66 1.67 4.32 1.34 5 1 C5.99 1.33 6.98 1.66 8 2 C8 2.99 8 3.98 8 5 C8.66 5.33 9.32 5.66 10 6 C9.67 7.32 9.34 8.64 9 10 C8.34 10 7.68 10 7 10 C7 11.65 7 13.3 7 15 C6.34 15 5.68 15 5 15 C3.74335022 12.09399739 3 10.20395416 3 7 C2.34 7 1.68 7 1 7 C0.67 4.69 0.34 2.38 0 0 Z " fill="#121B0D" transform="translate(268,222)"/>
<path d="M0 0 C-0.60455897 7.37561943 -0.60455897 7.37561943 -2.1875 9.875 C-4 11 -4 11 -7.125 12 C-8.07375 12.33 -9.0225 12.66 -10 13 C-10.33 13.99 -10.66 14.98 -11 16 C-11.73098777 11.3216783 -9.8315868 8.64094779 -7.38671875 4.8671875 C-3.77196653 0 -3.77196653 0 0 0 Z " fill="#071106" transform="translate(184,149)"/>
<path d="M0 0 C0.33 0 0.66 0 1 0 C1 3.3 1 6.6 1 10 C1.99 10.33 2.98 10.66 4 11 C2.02 13.97 2.02 13.97 0 17 C-0.66 16.67 -1.32 16.34 -2 16 C-2.33 17.32 -2.66 18.64 -3 20 C-3.66 20 -4.32 20 -5 20 C-5 21.32 -5 22.64 -5 24 C-5.66 24 -6.32 24 -7 24 C-7.33 24.99 -7.66 25.98 -8 27 C-8 25.68 -8 24.36 -8 23 C-7.34 23 -6.68 23 -6 23 C-5.896875 22.21625 -5.79375 21.4325 -5.6875 20.625 C-4.8035644 15.96424868 -3.39759703 11.52792917 -2 7 C-1.32124961 4.66989957 -0.6600308 2.33549359 0 0 Z " fill="#0A1609" transform="translate(292,202)"/>
<path d="M0 0 C2.97 0 5.94 0 9 0 C8.67 1.65 8.34 3.3 8 5 C7.01 5 6.02 5 5 5 C4.67 7.31 4.34 9.62 4 12 C3.34 12 2.68 12 2 12 C-1.57142857 4.71428571 -1.57142857 4.71428571 0 0 Z " fill="#73C15A" transform="translate(263,250)"/>
<path d="M0 0 C2 3 2 3 2 5 C1.34 5 0.68 5 0 5 C0 6.32 0 7.64 0 9 C-0.66 9 -1.32 9 -2 9 C-2.33 10.65 -2.66 12.3 -3 14 C-2.34 14 -1.68 14 -1 14 C-1.33 14.99 -1.66 15.98 -2 17 C-2.66 17 -3.32 17 -4 17 C-4 17.99 -4 18.98 -4 20 C-3.01 19.67 -2.02 19.34 -1 19 C-1.66 21.31 -2.32 23.62 -3 26 C-3.66 25.34 -4.32 24.68 -5 24 C-4.67 23.01 -4.34 22.02 -4 21 C-4.66 21 -5.32 21 -6 21 C-6.33 18.03 -6.66 15.06 -7 12 C-6.01 12 -5.02 12 -4 12 C-3.86722656 11.42765625 -3.73445312 10.8553125 -3.59765625 10.265625 C-3.00619683 8.02349125 -2.26711146 5.91420381 -1.4375 3.75 C-1.16808594 3.04359375 -0.89867187 2.3371875 -0.62109375 1.609375 C-0.41613281 1.07828125 -0.21117187 0.5471875 0 0 Z " fill="#68B444" transform="translate(250,172)"/>
<path d="M0 0 C0 0.66 0 1.32 0 2 C1.32 2.33 2.64 2.66 4 3 C-1.94 3.495 -1.94 3.495 -8 4 C-7.34 3.67 -6.68 3.34 -6 3 C-6 2.34 -6 1.68 -6 1 C-16.56 1 -27.12 1 -38 1 C-38 0.67 -38 0.34 -38 0 C-33.83744602 -0.14372087 -29.67484861 -0.28609077 -25.51220703 -0.42724609 C-24.09813205 -0.47538344 -22.68406926 -0.52388046 -21.27001953 -0.57275391 C-19.22952375 -0.643215 -17.18898663 -0.71235329 -15.1484375 -0.78125 C-13.31031494 -0.8440918 -13.31031494 -0.8440918 -11.43505859 -0.90820312 C-2.30441236 -1.15220618 -2.30441236 -1.15220618 0 0 Z " fill="#6BB148" transform="translate(189,145)"/>
<path d="M0 0 C17.82 0 35.64 0 54 0 C54 0.33 54 0.66 54 1 C36.84 1.33 19.68 1.66 2 2 C2 2.66 2 3.32 2 4 C1.34 4 0.68 4 0 4 C0 2.68 0 1.36 0 0 Z " fill="#8BC270" transform="translate(206,143)"/>
<path d="M0 0 C14.85 0 29.7 0 45 0 C45 1.65 45 3.3 45 5 C42.525 4.505 42.525 4.505 40 4 C40 3.34 40 2.68 40 2 C20.2 1.505 20.2 1.505 0 1 C0 0.67 0 0.34 0 0 Z " fill="#8BC865" transform="translate(149,143)"/>
<path d="M0 0 C0.33 0 0.66 0 1 0 C1.17711172 10.09536785 1.17711172 10.09536785 0 15 C-2.0625 16.4375 -2.0625 16.4375 -4 17 C-4.26932521 21.65052872 -4.26932521 21.65052872 -3 26 C-4.65 26.99 -6.3 27.98 -8 29 C-8.48990279 23.93767116 -6.7106322 19.67369154 -5 15 C-4.34 15 -3.68 15 -3 15 C-2.67 12.03 -2.34 9.06 -2 6 C-1.34 6 -0.68 6 0 6 C0 4.02 0 2.04 0 0 Z " fill="#203B16" transform="translate(283,229)"/>
<path d="M0 0 C0.99 0.99 1.98 1.98 3 3 C1.97448721 6.07653838 1.19203004 6.80796996 -1 9 C-1.33 9.99 -1.66 10.98 -2 12 C-3.32 11.34 -4.64 10.68 -6 10 C-5.34 7.69 -4.68 5.38 -4 3 C-3.34 3 -2.68 3 -2 3 C-1.34 2.01 -0.68 1.02 0 0 Z M-7 12 C-6.01 12 -5.02 12 -4 12 C-5.12451727 14.9719385 -6.22293791 17.33440687 -8 20 C-7.67 17.36 -7.34 14.72 -7 12 Z " fill="#75BD57" transform="translate(139,237)"/>
<path d="M0 0 C1.38294718 0.01329757 2.76582404 0.03715018 4.1484375 0.0703125 C4.85484375 0.07933594 5.56125 0.08835938 6.2890625 0.09765625 C8.03399848 0.12123647 9.77876045 0.15710789 11.5234375 0.1953125 C11.5234375 0.5253125 11.5234375 0.8553125 11.5234375 1.1953125 C5.5834375 1.6903125 5.5834375 1.6903125 -0.4765625 2.1953125 C0.5134375 2.8553125 1.5034375 3.5153125 2.5234375 4.1953125 C1.5334375 4.5253125 0.5434375 4.8553125 -0.4765625 5.1953125 C-0.53714844 5.81019531 -0.59773438 6.42507812 -0.66015625 7.05859375 C-0.74394531 7.86683594 -0.82773438 8.67507812 -0.9140625 9.5078125 C-0.99527344 10.30832031 -1.07648438 11.10882813 -1.16015625 11.93359375 C-1.4765625 14.1953125 -1.4765625 14.1953125 -2.4765625 17.1953125 C-6.11674635 7.44482005 -6.11674635 7.44482005 -5.4765625 2.1953125 C-3.4765625 0.1953125 -3.4765625 0.1953125 0 0 Z " fill="#1A3015" transform="translate(116.4765625,147.8046875)"/>
<path d="M0 0 C4.04248619 4.40998494 4.91741532 9.68762895 5.125 15.5 C5.08375 16.325 5.0425 17.15 5 18 C5.66 18 6.32 18 7 18 C7.33 19.32 7.66 20.64 8 22 C6.1875 21.875 6.1875 21.875 4 21 C2.375 18.1875 2.375 18.1875 1 15 C0.5875 14.278125 0.175 13.55625 -0.25 12.8125 C-1 11 -1 11 0 8 C0.06665376 6.60560336 0.08538199 5.20830125 0.0625 3.8125 C0.041875 2.554375 0.02125 1.29625 0 0 Z " fill="#70AB53" transform="translate(259,198)"/>
<path d="M0 0 C0.99 0.495 0.99 0.495 2 1 C2.4140625 3.06640625 2.4140625 3.06640625 2.625 5.5625 C2.69976562 6.38878906 2.77453125 7.21507812 2.8515625 8.06640625 C2.92503906 9.02353516 2.92503906 9.02353516 3 10 C3.66 10 4.32 10 5 10 C5.53394179 11.4117783 6.05165104 12.82970244 6.5625 14.25 C6.85253906 15.03890625 7.14257812 15.8278125 7.44140625 16.640625 C8.04522837 19.19103452 7.8473932 20.55322229 7 23 C5.0625 22.3125 5.0625 22.3125 3 21 C1.8156457 17.86992077 1.87464908 16.37605276 2.9375 13.1875 C3.288125 12.465625 3.63875 11.74375 4 11 C3.34 11 2.68 11 2 11 C-0.32590854 7.36576791 -0.16265833 4.22911669 0 0 Z " fill="#14260E" transform="translate(258,245)"/>
<path d="M0 0 C4.62 0 9.24 0 14 0 C14 0.66 14 1.32 14 2 C15.32 2.66 16.64 3.32 18 4 C18 8.95 18 13.9 18 19 C17.34 19 16.68 19 16 19 C16 16.03 16 13.06 16 10 C15.34 9.67 14.68 9.34 14 9 C14.66 9 15.32 9 16 9 C16 8.34 16 7.68 16 7 C15.34 7 14.68 7 14 7 C14.33 5.68 14.66 4.36 15 3 C14.34 3 13.68 3 13 3 C13 2.34 13 1.68 13 1 C8.71 1 4.42 1 0 1 C0 0.67 0 0.34 0 0 Z " fill="#193915" transform="translate(148,148)"/>
<path d="M0 0 C14.85 0 29.7 0 45 0 C45 0.66 45 1.32 45 2 C30.81 2 16.62 2 2 2 C2 2.66 2 3.32 2 4 C1.34 4 0.68 4 0 4 C0 2.68 0 1.36 0 0 Z " fill="#88C76B" transform="translate(281,143)"/>
<path d="M0 0 C1.65 0 3.3 0 5 0 C4.979375 1.19625 4.95875 2.3925 4.9375 3.625 C4.92793379 6.32745489 5.10598215 8.62411709 5.5625 11.3125 C6 14 6 14 5 17 C5.66 17 6.32 17 7 17 C6.67 18.32 6.34 19.64 6 21 C6 20.01 6 19.02 6 18 C5.34 18 4.68 18 4 18 C3.79503906 17.14535156 3.59007813 16.29070312 3.37890625 15.41015625 C3.10949219 14.30542969 2.84007813 13.20070312 2.5625 12.0625 C2.16224609 10.40927734 2.16224609 10.40927734 1.75390625 8.72265625 C1.27004275 6.10578746 1.27004275 6.10578746 0 5 C-0.04063832 3.33382885 -0.042721 1.66611905 0 0 Z " fill="#73B85D" transform="translate(110,196)"/>
<path d="M0 0 C0.66 0 1.32 0 2 0 C2 0.99 2 1.98 2 3 C2.66 3 3.32 3 4 3 C4.33 6.3 4.66 9.6 5 13 C4.34 13 3.68 13 3 13 C3 11.68 3 10.36 3 9 C2.38125 9.185625 1.7625 9.37125 1.125 9.5625 C-1 10 -1 10 -3 9 C-2.67 7.35 -2.34 5.7 -2 4 C-1.34 4 -0.68 4 0 4 C0 2.68 0 1.36 0 0 Z " fill="#73AF54" transform="translate(250,177)"/>
<path d="M0 0 C0.56203125 0.31710938 1.1240625 0.63421875 1.703125 0.9609375 C4.15196317 2.06874525 6.08387855 2.38975399 8.75 2.625 C9.54921875 2.69976562 10.3484375 2.77453125 11.171875 2.8515625 C11.77515625 2.90054688 12.3784375 2.94953125 13 3 C13 3.33 13 3.66 13 4 C-0.2 4 -13.4 4 -27 4 C-27 3.67 -27 3.34 -27 3 C-18.42 3 -9.84 3 -1 3 C-0.67 2.01 -0.34 1.02 0 0 Z " fill="#05080D" transform="translate(179,136)"/>
<path d="M0 0 C0.33 0 0.66 0 1 0 C1 1.98 1 3.96 1 6 C1.66 6.33 2.32 6.66 3 7 C3 8.32 3 9.64 3 11 C1.68 11 0.36 11 -1 11 C-0.34 11.33 0.32 11.66 1 12 C1 12.99 1 13.98 1 15 C0.34 15 -0.32 15 -1 15 C-1.33 16.32 -1.66 17.64 -2 19 C-2 18.34 -2 17.68 -2 17 C-2.66 17 -3.32 17 -4 17 C-2.07289294 5.47835991 -2.07289294 5.47835991 0 0 Z " fill="#102816" transform="translate(170,169)"/>
<path d="M0 0 C-0.33 0.99 -0.66 1.98 -1 3 C-0.61067144 5.14255793 -0.61067144 5.14255793 0 7 C-0.66 7 -1.32 7 -2 7 C-2.66 8.98 -3.32 10.96 -4 13 C-4.33 13 -4.66 13 -5 13 C-5.33 9.37 -5.66 5.74 -6 2 C-3 0 -3 0 0 0 Z " fill="#04050E" transform="translate(157,181)"/>
<path d="M0 0 C0.99 0.495 0.99 0.495 2 1 C2.33 1.99 2.66 2.98 3 4 C3.99 4.33 4.98 4.66 6 5 C6 4.34 6 3.68 6 3 C6.66 3 7.32 3 8 3 C7.42655063 5.86724686 7.1385485 6.8614515 5 9 C4.01 8.67 3.02 8.34 2 8 C2 9.98 2 11.96 2 14 C1.34 14 0.68 14 0 14 C0 9.38 0 4.76 0 0 Z " fill="#78B75C" transform="translate(299,152)"/>
<path d="M0 0 C0 2.66666667 0 5.33333333 0 8 C-0.66 8 -1.32 8 -2 8 C-2 8.66 -2 9.32 -2 10 C-3.875 9.875 -3.875 9.875 -6 9 C-7.25 5.9375 -7.25 5.9375 -8 3 C-7.34 3 -6.68 3 -6 3 C-6 2.34 -6 1.68 -6 1 C-5.34 1 -4.68 1 -4 1 C-4 1.66 -4 2.32 -4 3 C-2.68 2.01 -1.36 1.02 0 0 Z " fill="#6ABC4C" transform="translate(307,147)"/>
<path d="M0 0 C1.65 0 3.3 0 5 0 C5.33 3.3 5.66 6.6 6 10 C6.66 10 7.32 10 8 10 C7.67 10.99 7.34 11.98 7 13 C5.35 12.67 3.7 12.34 2 12 C2 10.02 2 8.04 2 6 C1.34 5.67 0.68 5.34 0 5 C0 3.35 0 1.7 0 0 Z " fill="#08090F" transform="translate(193,136)"/>
<path d="M0 0 C1.65 0 3.3 0 5 0 C4.67 3.3 4.34 6.6 4 10 C-0.95 10.33 -5.9 10.66 -11 11 C-10.67 10.34 -10.34 9.68 -10 9 C-6.04 9 -2.08 9 2 9 C2 7.02 2 5.04 2 3 C-0.31 3 -2.62 3 -5 3 C-5 2.67 -5 2.34 -5 2 C-3.35 1.67 -1.7 1.34 0 1 C0 0.67 0 0.34 0 0 Z " fill="#15290F" transform="translate(325,139)"/>
<path d="M0 0 C4.04739401 6.07109102 6.36935451 12.74757682 7 20 C5.68 20.33 4.36 20.66 3 21 C3 20.34 3 19.68 3 19 C3.66 19 4.32 19 5 19 C5 18.01 5 17.02 5 16 C4.34 16 3.68 16 3 16 C2.67 16.66 2.34 17.32 2 18 C1.34 16.35 0.68 14.7 0 13 C0.66 12.67 1.32 12.34 2 12 C1.67 10.7625 1.34 9.525 1 8.25 C0.20108841 5.25408155 0 3.19892281 0 0 Z " fill="#1E3717" transform="translate(115,214)"/>
<path d="M0 0 C0.66 0.33 1.32 0.66 2 1 C1.58846263 5.97093824 1.20399168 10.44508386 -1 15 C-1.66 15 -2.32 15 -3 15 C-3.33 15.66 -3.66 16.32 -4 17 C-4.79953138 13.71303767 -5.09658936 12.28976808 -4 9 C-3.34 9 -2.68 9 -2 9 C-2 7.68 -2 6.36 -2 5 C-1.34 4.34 -0.68 3.68 0 3 C0 2.01 0 1.02 0 0 Z " fill="#030A06" transform="translate(289,217)"/>
<path d="M0 0 C1.73694677 2.60542016 2.69100448 4.58342775 3.6875 7.5 C3.95949219 8.2734375 4.23148438 9.046875 4.51171875 9.84375 C5 12 5 12 4 15 C3.34 14.67 2.68 14.34 2 14 C2 13.34 2 12.68 2 12 C1.34 12 0.68 12 0 12 C-2 9 -2 9 -1.7578125 6.73828125 C-1.44457031 5.53751953 -1.44457031 5.53751953 -1.125 4.3125 C-0.92132813 3.50425781 -0.71765625 2.69601563 -0.5078125 1.86328125 C-0.34023437 1.24839844 -0.17265625 0.63351563 0 0 Z " fill="#6EA95B" transform="translate(126,197)"/>
<path d="M0 0 C0 0.66 0 1.32 0 2 C0.66 2 1.32 2 2 2 C1.25 3.9375 1.25 3.9375 0 6 C-2.125 6.75 -2.125 6.75 -4 7 C-3.67 7.99 -3.34 8.98 -3 10 C-4.07254877 12.51698632 -5.54803452 14.66805545 -7 17 C-7.33 15.68 -7.66 14.36 -8 13 C-7.34 13 -6.68 13 -6 13 C-5.94392578 12.09507812 -5.94392578 12.09507812 -5.88671875 11.171875 C-4.96774194 0 -4.96774194 0 0 0 Z " fill="#06160A" transform="translate(311,154)"/>
<path d="M0 0 C0.33 0 0.66 0 1 0 C1.22036864 3.85645121 0.60355101 6.49223216 -1 10 C-3.97 9.505 -3.97 9.505 -7 9 C-7.33 7.02 -7.66 5.04 -8 3 C-7.34 3 -6.68 3 -6 3 C-5.67 2.34 -5.34 1.68 -5 1 C-4.34 2.32 -3.68 3.64 -3 5 C-2.34 4.67 -1.68 4.34 -1 4 C-0.34786708 1.97536745 -0.34786708 1.97536745 0 0 Z " fill="#6C9953" transform="translate(273,259)"/>
<path d="M0 0 C2 2 2 2 2.875 4 C4.2363704 6.42021404 5.46546555 6.98618622 8 8 C7.67 8.99 7.34 9.98 7 11 C5.33333333 11 3.66666667 11 2 11 C2 12.65 2 14.3 2 16 C0.35130334 13.03234602 -0.56734434 10.37471415 -1 7 C-0.67 6.01 -0.34 5.02 0 4 C0 2.68 0 1.36 0 0 Z " fill="#62A73F" transform="translate(252,217)"/>
<path d="M0 0 C0.66 0.33 1.32 0.66 2 1 C3.36817102 7.04275534 3.36817102 7.04275534 2.0625 10.4375 C1.711875 10.953125 1.36125 11.46875 1 12 C-0.65 10.68 -2.3 9.36 -4 8 C-3.67 6.68 -3.34 5.36 -3 4 C-2.34 4 -1.68 4 -1 4 C-0.67 2.68 -0.34 1.36 0 0 Z " fill="#76B85A" transform="translate(247,168)"/>
<path d="M0 0 C2.04219706 1.69179328 2.91793306 2.63727666 3.51171875 5.26171875 C3.56972656 6.06222656 3.62773437 6.86273438 3.6875 7.6875 C3.75324219 8.49574219 3.81898438 9.30398437 3.88671875 10.13671875 C3.92410156 10.75160156 3.96148437 11.36648437 4 12 C4.66 12 5.32 12 6 12 C5.67 9.69 5.34 7.38 5 5 C5.99 5.66 6.98 6.32 8 7 C7.25 13.625 7.25 13.625 5 17 C1.74288723 11.22125154 0.30656385 6.62177926 0 0 Z " fill="#568D42" transform="translate(230,163)"/>
<path d="M0 0 C0.66 0 1.32 0 2 0 C2 3.63 2 7.26 2 11 C1.01 11.33 0.02 11.66 -1 12 C-1.33 12.66 -1.66 13.32 -2 14 C-4.125 6.375 -4.125 6.375 -3 3 C-2.01 3 -1.02 3 0 3 C0 2.01 0 1.02 0 0 Z " fill="#66BC4B" transform="translate(271,252)"/>
<path d="M0 0 C4.62 0 9.24 0 14 0 C14 0.66 14 1.32 14 2 C14.99 2 15.98 2 17 2 C17 2.66 17 3.32 17 4 C17.66 4 18.32 4 19 4 C19 8.62 19 13.24 19 18 C18.67 18 18.34 18 18 18 C17.95101563 17.14535156 17.90203125 16.29070312 17.8515625 15.41015625 C17.77679688 14.30542969 17.70203125 13.20070312 17.625 12.0625 C17.55539062 10.96035156 17.48578125 9.85820312 17.4140625 8.72265625 C17.27742188 7.82417969 17.14078125 6.92570313 17 6 C16.34 5.67 15.68 5.34 15 5 C15.33 4.34 15.66 3.68 16 3 C15.01 3 14.02 3 13 3 C13 2.34 13 1.68 13 1 C8.71 1 4.42 1 0 1 C0 0.67 0 0.34 0 0 Z " fill="#24451C" transform="translate(280,148)"/>
<path d="M0 0 C1.32 0 2.64 0 4 0 C4.33 2.97 4.66 5.94 5 9 C4.34 9 3.68 9 3 9 C3 8.34 3 7.68 3 7 C2.34 7 1.68 7 1 7 C1.33 8.32 1.66 9.64 2 11 C1.34 11 0.68 11 0 11 C-0.33 11.99 -0.66 12.98 -1 14 C-1 11.03 -1 8.06 -1 5 C-0.34 5 0.32 5 1 5 C0.67 3.35 0.34 1.7 0 0 Z " fill="#6CB941" transform="translate(167,148)"/>
<path d="M0 0 C1.17684582 2.35369164 1.3889669 4.26186614 1.6875 6.875 C1.79449219 7.73867187 1.90148437 8.60234375 2.01171875 9.4921875 C1.99887546 12.24065124 1.41093176 13.67547641 0 16 C-0.33 15.01 -0.66 14.02 -1 13 C-1.66 13 -2.32 13 -3 13 C-3.33 13.66 -3.66 14.32 -4 15 C-2.9318153 9.88634986 -1.76892524 4.92772031 0 0 Z " fill="#5F9544" transform="translate(282,212)"/>
<path d="M0 0 C2.46301423 2.46301423 2.76766521 4.27360036 3.625 7.625 C3.88539063 8.62789062 4.14578125 9.63078125 4.4140625 10.6640625 C4.60742188 11.43492187 4.80078125 12.20578125 5 13 C4.01 13.99 3.02 14.98 2 16 C2 14.35 2 12.7 2 11 C1.34 11 0.68 11 0 11 C-0.33 11.66 -0.66 12.32 -1 13 C-1.66 10.69 -2.32 8.38 -3 6 C-2.34 5.34 -1.68 4.68 -1 4 C-1 5.32 -1 6.64 -1 8 C-0.34 8 0.32 8 1 8 C0.67 5.36 0.34 2.72 0 0 Z " fill="#67A64F" transform="translate(244,156)"/>
<path d="M0 0 C0.33 0 0.66 0 1 0 C1.18483183 4.0663003 0.93193597 6.45811739 -1 10 C-1.69730806 12.3243602 -2.36912152 14.65673706 -3 17 C-4.5625 15.3125 -4.5625 15.3125 -6 13 C-5.875 10.375 -5.875 10.375 -5 8 C-4.01 7.34 -3.02 6.68 -2 6 C-0.78715124 2.94570927 -0.78715124 2.94570927 0 0 Z " fill="#5D914B" transform="translate(298,181)"/>
<path d="M0 0 C-0.74453109 6.20442578 -2.15901119 11.4487792 -5 17 C-4.98839844 16.24074219 -4.97679687 15.48148438 -4.96484375 14.69921875 C-4.95582031 13.70535156 -4.94679688 12.71148437 -4.9375 11.6875 C-4.92009766 10.20830078 -4.92009766 10.20830078 -4.90234375 8.69921875 C-4.87670138 5.90036151 -4.87670138 5.90036151 -6 3 C-5.34 3 -4.68 3 -4 3 C-4 2.34 -4 1.68 -4 1 C-2 0 -2 0 0 0 Z " fill="#13280E" transform="translate(292,182)"/>
<path d="M0 0 C1.65 0 3.3 0 5 0 C5 0.99 5 1.98 5 3 C4.34 3 3.68 3 3 3 C2.67 6.3 2.34 9.6 2 13 C1.01 12.67 0.02 12.34 -1 12 C-1.08159574 7.83861737 -0.98248524 4.0527516 0 0 Z " fill="#74C056" transform="translate(138,250)"/>
<path d="M0 0 C0.33 0.99 0.66 1.98 1 3 C1.66 3 2.32 3 3 3 C3.33 2.34 3.66 1.68 4 1 C3.67 4.3 3.34 7.6 3 11 C2.34 11 1.68 11 1 11 C0.67 11.99 0.34 12.98 0 14 C0 13.01 0 12.02 0 11 C-0.66 11 -1.32 11 -2 11 C-2.33 11.66 -2.66 12.32 -3 13 C-2.625 10.0625 -2.625 10.0625 -2 7 C-1.34 6.67 -0.68 6.34 0 6 C0 5.34 0 4.68 0 4 C0 2.68 0 1.36 0 0 Z " fill="#75BD5F" transform="translate(165,168)"/>
<path d="M0 0 C0.66 0 1.32 0 2 0 C1.55090939 1.48199902 1.09043436 2.96055236 0.625 4.4375 C0.36976563 5.26121094 0.11453125 6.08492187 -0.1484375 6.93359375 C-1 9 -1 9 -3 10 C-2.690625 10.928125 -2.690625 10.928125 -2.375 11.875 C-2.25125 12.57625 -2.1275 13.2775 -2 14 C-2.66 14.66 -3.32 15.32 -4 16 C-6.78637633 11.8204355 -5.79562512 9.85331323 -5 5 C-3.68 4.67 -2.36 4.34 -1 4 C-0.67 2.68 -0.34 1.36 0 0 Z " fill="#69B04E" transform="translate(169,162)"/>
<path d="M0 0 C0.66 0 1.32 0 2 0 C2 0.99 2 1.98 2 3 C2.66 3 3.32 3 4 3 C4 4.98 4 6.96 4 9 C4.99 9 5.98 9 7 9 C7.625 11.3125 7.625 11.3125 8 14 C7.01 15.485 7.01 15.485 6 17 C3 10.5 3 10.5 3 6 C2.34 6 1.68 6 1 6 C0.67 4.02 0.34 2.04 0 0 Z " fill="#0C2507" transform="translate(135,221)"/>
<path d="M0 0 C0.33 0.66 0.66 1.32 1 2 C1.99 2 2.98 2 4 2 C5.20272819 4.40545638 5.10071472 5.94996953 5.0625 8.625 C5.05347656 9.44226563 5.04445313 10.25953125 5.03515625 11.1015625 C5.02355469 11.72804687 5.01195313 12.35453125 5 13 C4.34 13 3.68 13 3 13 C0.78145293 8.37802694 -0.38281159 5.23175837 0 0 Z " fill="#77B363" transform="translate(95,153)"/>
<path d="M0 0 C1.32 0.33 2.64 0.66 4 1 C4 0.67 4 0.34 4 0 C9.28 0 14.56 0 20 0 C20 0.33 20 0.66 20 1 C17.36 1 14.72 1 12 1 C12 1.66 12 2.32 12 3 C7.38 3 2.76 3 -2 3 C-1.34 2.67 -0.68 2.34 0 2 C0 1.34 0 0.68 0 0 Z " fill="#67AC49" transform="translate(208,145)"/>
<path d="M0 0 C4.95 0 9.9 0 15 0 C15 0.66 15 1.32 15 2 C16.32 2.33 17.64 2.66 19 3 C16.95863605 3.05451714 14.91684144 3.09302485 12.875 3.125 C11.16957031 3.15980469 11.16957031 3.15980469 9.4296875 3.1953125 C5.94242233 2.99672109 3.2446138 2.2524801 0 1 C0 0.67 0 0.34 0 0 Z " fill="#69B047" transform="translate(241,145)"/>
<path d="M0 0 C0.33 0 0.66 0 1 0 C0.979375 0.969375 0.95875 1.93875 0.9375 2.9375 C0.64381501 5.87465895 0.64381501 5.87465895 2 7 C1.8125 9.4375 1.8125 9.4375 1 12 C-1.05078125 13.16015625 -1.05078125 13.16015625 -3 14 C-2.58846263 9.02906176 -2.20399168 4.55491614 0 0 Z " fill="#122010" transform="translate(164,188)"/>
<path d="M0 0 C0.66 0 1.32 0 2 0 C2.99 2.31 3.98 4.62 5 7 C5.66 7 6.32 7 7 7 C7.66 9.64 8.32 12.28 9 15 C5.03141973 12.0897078 2.88107873 10.17632348 1.375 5.4375 C1.11460938 4.63183594 0.85421875 3.82617188 0.5859375 2.99609375 C0 1 0 1 0 0 Z " fill="#0E1D0D" transform="translate(115,165)"/>
<path d="M0 0 C0.33 0 0.66 0 1 0 C1 1.65 1 3.3 1 5 C-3.62 5 -8.24 5 -13 5 C-13 4.34 -13 3.68 -13 3 C-6.565 2.505 -6.565 2.505 0 2 C0 1.34 0 0.68 0 0 Z " fill="#6BA953" transform="translate(127,143)"/>
<path d="M0 0 C0.99 0.33 1.98 0.66 3 1 C3.99 0.67 4.98 0.34 6 0 C6 0.66 6 1.32 6 2 C6.66 2 7.32 2 8 2 C8 2.99 8 3.98 8 5 C7.360625 4.814375 6.72125 4.62875 6.0625 4.4375 C5.0415625 4.2209375 5.0415625 4.2209375 4 4 C3.67 4.33 3.34 4.66 3 5 C-1 5 -1 5 -3 4 C-2.01 2.68 -1.02 1.36 0 0 Z " fill="#0B090F" transform="translate(314,155)"/>
<path d="M0 0 C0.33 0.99 0.66 1.98 1 3 C1.66 3.33 2.32 3.66 3 4 C2.1875 6.4375 2.1875 6.4375 1 9 C0.01 9.33 -0.98 9.66 -2 10 C-2 9.34 -2 8.68 -2 8 C-2.66 8 -3.32 8 -4 8 C-4 8.66 -4 9.32 -4 10 C-4.66 10 -5.32 10 -6 10 C-6 9.01 -6 8.02 -6 7 C-4.02 6.67 -2.04 6.34 0 6 C-0.2784375 4.7934375 -0.2784375 4.7934375 -0.5625 3.5625 C-0.706875 2.716875 -0.85125 1.87125 -1 1 C-0.67 0.67 -0.34 0.34 0 0 Z " fill="#6AB848" transform="translate(236,149)"/>
<path d="M0 0 C0.66 0 1.32 0 2 0 C2 2.97 2 5.94 2 9 C2.99 9 3.98 9 5 9 C5 9.99 5 10.98 5 12 C3.125 11.8125 3.125 11.8125 1 11 C-1.33267768 7.11220387 -1.00449686 4.31933651 0 0 Z " fill="#78B45E" transform="translate(133,256)"/>
<path d="M0 0 C1.65 0 3.3 0 5 0 C4.34 2.97 3.68 5.94 3 9 C0.10740831 7.55370416 0.02170686 6.06512057 -1 3 C-0.67 2.01 -0.34 1.02 0 0 Z " fill="#7ABA63" transform="translate(146,226)"/>
<path d="M0 0 C0.33 0 0.66 0 1 0 C2.61885053 6.34049792 1.24109111 10.37676418 -2 16 C-2.66 16.66 -3.32 17.32 -4 18 C-3.67 15.36 -3.34 12.72 -3 10 C-2.34 10 -1.68 10 -1 10 C-0.67 6.7 -0.34 3.4 0 0 Z " fill="#173212" transform="translate(159,202)"/>
<path d="M0 0 C0.33 1.32 0.66 2.64 1 4 C1.66 4 2.32 4 3 4 C2.979375 5.11375 2.95875 6.2275 2.9375 7.375 C2.73619282 10.83215921 2.73619282 10.83215921 4 13 C3.0625 15.125 3.0625 15.125 2 17 C-1.54570896 6.32066231 -1.54570896 6.32066231 -1 1 C-0.67 0.67 -0.34 0.34 0 0 Z " fill="#152B10" transform="translate(245,149)"/>
<path d="M0 0 C1.03159626 3.09478879 0.97482862 4.52631393 0.5625 7.6875 C0.46066406 8.49574219 0.35882813 9.30398437 0.25390625 10.13671875 C0.17011719 10.75160156 0.08632813 11.36648437 0 12 C-0.99 12.33 -1.98 12.66 -3 13 C-3 14.32 -3 15.64 -3 17 C-3.66 17 -4.32 17 -5 17 C-5.33 17.99 -5.66 18.98 -6 20 C-6 18.68 -6 17.36 -6 16 C-5.34 16 -4.68 16 -4 16 C-3.8453125 14.824375 -3.8453125 14.824375 -3.6875 13.625 C-2.80420046 8.9676024 -1.41971242 4.51807851 0 0 Z " fill="#1D3E19" transform="translate(290,209)"/>
<path d="M0 0 C0.66 0.33 1.32 0.66 2 1 C1.34 3.64 0.68 6.28 0 9 C-0.66 9 -1.32 9 -2 9 C-2.66 8.34 -3.32 7.68 -4 7 C-4 5.68 -4 4.36 -4 3 C-2 1.25 -2 1.25 0 0 Z " fill="#051404" transform="translate(278,255)"/>
<path d="M0 0 C0.66 0 1.32 0 2 0 C2.33 2.31 2.66 4.62 3 7 C2.01 7.495 2.01 7.495 1 8 C0.67 8.99 0.34 9.98 0 11 C-0.66 11 -1.32 11 -2 11 C-1.67 8.69 -1.34 6.38 -1 4 C-0.34 4 0.32 4 1 4 C0.67 2.68 0.34 1.36 0 0 Z " fill="#75C056" transform="translate(168,155)"/>
<path d="M0 0 C2.30010876 2.30010876 2.45884754 3.37521077 3.0625 6.5 C3.71952131 9.85459814 3.71952131 9.85459814 5 13 C4.34 13.66 3.68 14.32 3 15 C-0.53846154 5.92307692 -0.53846154 5.92307692 -1 2 C-0.67 1.34 -0.34 0.68 0 0 Z " fill="#71AE59" transform="translate(257,234)"/>
<path d="M0 0 C2 3 2 3 2.5 5.625 C2.665 6.40875 2.83 7.1925 3 8 C3.66 8.33 4.32 8.66 5 9 C4.67 11.64 4.34 14.28 4 17 C3.67 17 3.34 17 3 17 C2.34 13.37 1.68 9.74 1 6 C0.34 6 -0.32 6 -1 6 C-0.67 4.02 -0.34 2.04 0 0 Z " fill="#538842" transform="translate(151,206)"/>
<path d="M0 0 C0.99 0.33 1.98 0.66 3 1 C2.67 3.97 2.34 6.94 2 10 C1.67 9.01 1.34 8.02 1 7 C0.34 7 -0.32 7 -1 7 C-1.04254356 5.00045254 -1.04080783 2.99958364 -1 1 C-0.67 0.67 -0.34 0.34 0 0 Z " fill="#132912" transform="translate(265,209)"/>
<path d="M0 0 C0.98120464 3.05263664 0.98120464 4.94736336 0 8 C-0.66 8 -1.32 8 -2 8 C-1.67 6.68 -1.34 5.36 -1 4 C-1.66 4 -2.32 4 -3 4 C-3.33 5.65 -3.66 7.3 -4 9 C-4.33 9 -4.66 9 -5 9 C-5.3125 6.1875 -5.3125 6.1875 -5 3 C-2.5 1.125 -2.5 1.125 0 0 Z " fill="#7ABA5F" transform="translate(290,201)"/>
<path d="M0 0 C1.32 0 2.64 0 4 0 C3.5359375 0.7425 3.5359375 0.7425 3.0625 1.5 C1.58355618 4.97986781 1.37597149 8.24028509 1 12 C-1 10 -1 10 -1.1875 6.5625 C-1 3 -1 3 0 0 Z " fill="#7ABB5D" transform="translate(110,146)"/>
<path d="M0 0 C0.66 0 1.32 0 2 0 C2 0.66 2 1.32 2 2 C2.66 2 3.32 2 4 2 C4.33 5.3 4.66 8.6 5 12 C4.34 12 3.68 12 3 12 C2.67 9.03 2.34 6.06 2 3 C1.34 3 0.68 3 0 3 C0 2.01 0 1.02 0 0 Z " fill="#7EB767" transform="translate(115,210)"/>
<path d="M0 0 C4 4.5 4 4.5 4 9 C2.68 8.67 1.36 8.34 0 8 C-0.66 5.69 -1.32 3.38 -2 1 C-1.34 0.67 -0.68 0.34 0 0 Z " fill="#6AC042" transform="translate(257,208)"/>
<path d="M0 0 C2.04795423 1.9626228 2.94976638 3.4277307 3.19921875 6.26953125 C3.18858877 8.51954383 3.12958525 10.75385562 3 13 C2.34 13 1.68 13 1 13 C-0.10228696 8.59085217 -0.07654536 4.51617599 0 0 Z " fill="#6A9654" transform="translate(259,198)"/>
<path d="M0 0 C0.66 0 1.32 0 2 0 C3.61949011 2.57213134 4.04408751 3.67669159 3.625 6.75 C3.41875 7.4925 3.2125 8.235 3 9 C0.11749016 6.61879622 -0.61038985 4.70129644 -1 1 C-0.67 0.67 -0.34 0.34 0 0 Z " fill="#76B25E" transform="translate(107,186)"/>
<path d="M0 0 C0.33 0 0.66 0 1 0 C2.46199687 4.38599062 3.4888483 7.53345511 2 12 C1.34 12.99 0.68 13.98 0 15 C0.33 12.69 0.66 10.38 1 8 C0.34 8 -0.32 8 -1 8 C-0.67 5.36 -0.34 2.72 0 0 Z " fill="#629F3F" transform="translate(159,181)"/>
<path d="M0 0 C0.66 0 1.32 0 2 0 C4.09350689 3.4019487 4.17942163 6.05272412 4 10 C3.34 10 2.68 10 2 10 C1.46987262 8.71211992 0.9511671 7.41953322 0.4375 6.125 C0.14746094 5.40570313 -0.14257812 4.68640625 -0.44140625 3.9453125 C-1 2 -1 2 0 0 Z " fill="#73B061" transform="translate(263,252)"/>
<path d="M0 0 C0.66 0 1.32 0 2 0 C2.66 1.32 3.32 2.64 4 4 C2.68 4 1.36 4 0 4 C-0.33 5.98 -0.66 7.96 -1 10 C-2.64826111 7.03312999 -3.44271087 4.34373475 -4 1 C-3.01 1.33 -2.02 1.66 -1 2 C-0.67 1.34 -0.34 0.68 0 0 Z " fill="#5FA54B" transform="translate(133,252)"/>
<path d="M0 0 C0.99 0.66 1.98 1.32 3 2 C2.67 3.65 2.34 5.3 2 7 C-0.31 6.67 -2.62 6.34 -5 6 C-4.67 5.01 -4.34 4.02 -4 3 C-2.02 3.495 -2.02 3.495 0 4 C0 2.68 0 1.36 0 0 Z " fill="#75BD5B" transform="translate(134,225)"/>
<path d="M0 0 C2 1.625 2 1.625 4 4 C4.25 7.25 4.25 7.25 4 10 C3.01 9.01 2.02 8.02 1 7 C0.01 7.33 -0.98 7.66 -2 8 C-1.67 7.05125 -1.34 6.1025 -1 5.125 C0.10159191 2.22937548 0.10159191 2.22937548 0 0 Z " fill="#69BC44" transform="translate(112,182)"/>
<path d="M0 0 C0.66 0 1.32 0 2 0 C1.5547115 5.27315333 0.91626837 10.01770224 -1 15 C-1.33 15 -1.66 15 -2 15 C-2.22577402 9.5814234 -1.46670113 5.22512279 0 0 Z " fill="#80B861" transform="translate(302,162)"/>
<path d="M0 0 C2.64 0 5.28 0 8 0 C8 1.65 8 3.3 8 5 C6.35 4.67 4.7 4.34 3 4 C3 3.34 3 2.68 3 2 C2.01 1.67 1.02 1.34 0 1 C0 0.67 0 0.34 0 0 Z " fill="#87B862" transform="translate(186,143)"/>
<path d="M0 0 C0.33 0 0.66 0 1 0 C1.09038099 5.15171623 0.84681133 9.91913204 0 15 C-0.66 14.67 -1.32 14.34 -2 14 C-2 11.36 -2 8.72 -2 6 C-1.34 6 -0.68 6 0 6 C0 4.02 0 2.04 0 0 Z " fill="#172A13" transform="translate(283,229)"/>
<path d="M0 0 C0.99 0 1.98 0 3 0 C4.125 5.625 4.125 5.625 3 9 C3.66 9 4.32 9 5 9 C4.67 10.32 4.34 11.64 4 13 C4 12.01 4 11.02 4 10 C3.34 10 2.68 10 2 10 C1.34 6.7 0.68 3.4 0 0 Z " fill="#689E56" transform="translate(112,204)"/>
<path d="M0 0 C2.92602095 1.46301048 3.09705209 3.41022764 4.1875 6.4375 C4.55230469 7.42621094 4.91710937 8.41492188 5.29296875 9.43359375 C6 12 6 12 5 14 C3.046875 13.3828125 3.046875 13.3828125 1 12 C0.390625 9.1796875 0.390625 9.1796875 0.25 5.875 C0.19328125 4.77929688 0.1365625 3.68359375 0.078125 2.5546875 C0.05234375 1.71164063 0.0265625 0.86859375 0 0 Z " fill="#15260E" transform="translate(224,151)"/>
<path d="M0 0 C0.66 0.99 1.32 1.98 2 3 C1.01 3.33 0.02 3.66 -1 4 C-2.22969878 7.51190809 -2.22969878 7.51190809 -3 11 C-3.66 11 -4.32 11 -5 11 C-5.33 11.99 -5.66 12.98 -6 14 C-6.8349542 8.6562931 -3.96412569 5.1594944 -1 1 C-0.67 0.67 -0.34 0.34 0 0 Z " fill="#163311" transform="translate(179,151)"/>
<path d="M0 0 C0.33 0.99 0.66 1.98 1 3 C1.66 3 2.32 3 3 3 C3 4.32 3 5.64 3 7 C1.68 7 0.36 7 -1 7 C-1 6.34 -1 5.68 -1 5 C-2.32 5.33 -3.64 5.66 -5 6 C-4.67 5.01 -4.34 4.02 -4 3 C-2.02 3.495 -2.02 3.495 0 4 C0 2.68 0 1.36 0 0 Z " fill="#0E130B" transform="translate(272,265)"/>
<path d="M0 0 C2.475 0.495 2.475 0.495 5 1 C5.33 2.65 5.66 4.3 6 6 C4.68 6.33 3.36 6.66 2 7 C1.34 4.69 0.68 2.38 0 0 Z " fill="#6FA857" transform="translate(237,183)"/>
<path d="M0 0 C3.53790403 3.69172595 3.59115883 7.09390595 4 12 C1 12 1 12 -1 11 C-1 10.34 -1 9.68 -1 9 C-0.34 8.67 0.32 8.34 1 8 C0.67 5.36 0.34 2.72 0 0 Z " fill="#172B12" transform="translate(101,176)"/>
<path d="M0 0 C3.97959184 3.97959184 3.97959184 3.97959184 4.0625 8.125 C4.041875 9.07375 4.02125 10.0225 4 11 C3.34 11 2.68 11 2 11 C1.34 7.37 0.68 3.74 0 0 Z " fill="#78B264" transform="translate(100,168)"/>
<path d="M0 0 C1.125 1.6875 1.125 1.6875 2 4 C1.125 6.75 1.125 6.75 0 9 C-0.66 9 -1.32 9 -2 9 C-2.33 9.99 -2.66 10.98 -3 12 C-2.40075776 7.80530429 -1.42500059 3.99000166 0 0 Z " fill="#12280F" transform="translate(145,248)"/>
<path d="M0 0 C1.32 0.66 2.64 1.32 4 2 C3.67 4.31 3.34 6.62 3 9 C2.34 9 1.68 9 1 9 C-1.09230769 4.56923077 -1.09230769 4.56923077 -0.625 1.6875 C-0.41875 1.130625 -0.2125 0.57375 0 0 Z " fill="#051A03" transform="translate(272,228)"/>
<path d="M0 0 C1.32 0 2.64 0 4 0 C5 2 5 2 4.0625 5.125 C3.711875 6.07375 3.36125 7.0225 3 8 C2.34 8 1.68 8 1 8 C0.67 5.36 0.34 2.72 0 0 Z " fill="#070F07" transform="translate(275,219)"/>
<path d="M0 0 C1.32 0 2.64 0 4 0 C3.46599103 3.91606575 2.80330533 6.39338934 1 10 C0.67 6.7 0.34 3.4 0 0 Z " fill="#64A457" transform="translate(284,215)"/>
<path d="M0 0 C0.33 0 0.66 0 1 0 C1 1.98 1 3.96 1 6 C1.66 6.33 2.32 6.66 3 7 C3 8.32 3 9.64 3 11 C2.01 10.67 1.02 10.34 0 10 C-1.125 3.375 -1.125 3.375 0 0 Z " fill="#15230F" transform="translate(170,169)"/>
<path d="M0 0 C4.95 0 9.9 0 15 0 C15 0.33 15 0.66 15 1 C8.565 1.495 8.565 1.495 2 2 C2 2.66 2 3.32 2 4 C1.34 4 0.68 4 0 4 C0 2.68 0 1.36 0 0 Z " fill="#8CB76E" transform="translate(281,143)"/>
<path d="M0 0 C2.09350689 3.4019487 2.17942163 6.05272412 2 10 C-0.52259061 8.02579865 -0.9929808 7.03254358 -1.6875 3.8125 C-1.790625 2.884375 -1.89375 1.95625 -2 1 C-1.34 0.67 -0.68 0.34 0 0 Z " fill="#588041" transform="translate(124,234)"/>
<path d="M0 0 C0.66 0.33 1.32 0.66 2 1 C1.44271087 4.34373475 0.64826111 7.03312999 -1 10 C-1.66 10 -2.32 10 -3 10 C-2.25 3.375 -2.25 3.375 0 0 Z " fill="#060B07" transform="translate(159,213)"/>
<path d="M0 0 C0.33 0 0.66 0 1 0 C0.91231752 1.5843317 0.80412671 3.16753567 0.6875 4.75 C0.62949219 5.63171875 0.57148438 6.5134375 0.51171875 7.421875 C-0.0641181 10.32303774 -1.07596148 11.79225607 -3 14 C-2.88512252 12.41590006 -2.75765492 10.83271037 -2.625 9.25 C-2.55539063 8.36828125 -2.48578125 7.4865625 -2.4140625 6.578125 C-2.00149945 4.00933618 -1.28839043 2.24158985 0 0 Z " fill="#1A3717" transform="translate(149,209)"/>
<path d="M0 0 C0.99 0 1.98 0 3 0 C3 1.98 3 3.96 3 6 C2.01 6.495 2.01 6.495 1 7 C1 6.34 1 5.68 1 5 C0.34 5 -0.32 5 -1 5 C-0.67 3.35 -0.34 1.7 0 0 Z " fill="#05050E" transform="translate(161,158)"/>
<path d="M0 0 C0.33 0.99 0.66 1.98 1 3 C-0.28965176 4.37562854 -1.62689293 5.70766393 -3 7 C-3.66 7 -4.32 7 -5 7 C-5.33 6.01 -5.66 5.02 -6 4 C-3.94766315 1.7522025 -2.99332739 0.9977758 0 0 Z " fill="#091306" transform="translate(316,149)"/>
<path d="M0 0 C0.99 0.33 1.98 0.66 3 1 C3 2.98 3 4.96 3 7 C2.01 7 1.02 7 0 7 C-0.38133299 5.0085944 -0.71325582 3.00720923 -1 1 C-0.67 0.67 -0.34 0.34 0 0 Z " fill="#6CC245" transform="translate(130,240)"/>
<path d="M0 0 C0.33 0 0.66 0 1 0 C0.88490339 1.41750563 0.75746342 2.83401169 0.625 4.25 C0.55539063 5.03890625 0.48578125 5.8278125 0.4140625 6.640625 C-0.01507113 9.085877 -0.78600638 10.84836903 -2 13 C-2 12.01 -2 11.02 -2 10 C-2.66 9.67 -3.32 9.34 -4 9 C-3.2884375 7.88625 -3.2884375 7.88625 -2.5625 6.75 C-1.22130673 4.38949985 -0.487688 2.63351523 0 0 Z " fill="#081406" transform="translate(145,219)"/>
<path d="M0 0 C0.66 0.33 1.32 0.66 2 1 C2 3.31 2 5.62 2 8 C1.01 8.33 0.02 8.66 -1 9 C-1.33 6.69 -1.66 4.38 -2 2 C-1.34 2 -0.68 2 0 2 C0 1.34 0 0.68 0 0 Z " fill="#091C07" transform="translate(134,209)"/>
<path d="M0 0 C0.66 0 1.32 0 2 0 C2.33 1.65 2.66 3.3 3 5 C0.92446352 5.5534764 -0.84365964 6 -3 6 C-2 3 -2 3 0 0 Z " fill="#5EAF42" transform="translate(111,191)"/>
<path d="M0 0 C0.99 0.99 1.98 1.98 3 3 C3 3.66 3 4.32 3 5 C3.99 5 4.98 5 6 5 C6 5.99 6 6.98 6 8 C4.68 8.33 3.36 8.66 2 9 C1.34 6.03 0.68 3.06 0 0 Z " fill="#13270E" transform="translate(123,187)"/>
<path d="M0 0 C2.00240521 2.25270587 2.94368221 3.60577544 3.375 6.625 C3.25125 7.40875 3.1275 8.1925 3 9 C2.01 9.66 1.02 10.32 0 11 C-0.33 9.68 -0.66 8.36 -1 7 C-0.01 7 0.98 7 2 7 C1.34 6.01 0.68 5.02 0 4 C0 2.68 0 1.36 0 0 Z " fill="#78C15B" transform="translate(120,185)"/>
<path d="M0 0 C4.25 6.375 4.25 6.375 4 11 C3.67 10.34 3.34 9.68 3 9 C2.34 9 1.68 9 1 9 C-1.125 3.375 -1.125 3.375 0 0 Z " fill="#58864B" transform="translate(117,172)"/>
<path d="M0 0 C0.66 0 1.32 0 2 0 C2 0.99 2 1.98 2 3 C2.66 3 3.32 3 4 3 C4.33 2.01 4.66 1.02 5 0 C4.5020163 3.73487777 4.12508244 5.81237635 2 9 C1.34 6.03 0.68 3.06 0 0 Z " fill="#14260E" transform="translate(291,170)"/>
<path d="M0 0 C0.99 0.33 1.98 0.66 3 1 C3 1.66 3 2.32 3 3 C2.34 3 1.68 3 1 3 C1.226875 3.598125 1.45375 4.19625 1.6875 4.8125 C1.790625 5.534375 1.89375 6.25625 2 7 C1.01 7.99 0.02 8.98 -1 10 C-0.67 6.7 -0.34 3.4 0 0 Z " fill="#080909" transform="translate(227,164)"/>
<path d="M0 0 C1.32283205 2.64566409 1.32891786 4.0397393 1 7 C-0.17291374 9.46875295 -1.54226163 11.67672947 -3 14 C-3.33 12.68 -3.66 11.36 -4 10 C-3.34 10 -2.68 10 -2 10 C-1.93941406 9.36191406 -1.87882812 8.72382813 -1.81640625 8.06640625 C-1.73261719 7.24011719 -1.64882813 6.41382813 -1.5625 5.5625 C-1.48128906 4.73878906 -1.40007812 3.91507813 -1.31640625 3.06640625 C-1 1 -1 1 0 0 Z " fill="#1F4115" transform="translate(307,157)"/>
<path d="M0 0 C1.98 0.66 3.96 1.32 6 2 C6 2.66 6 3.32 6 4 C5.34 4 4.68 4 4 4 C4 4.66 4 5.32 4 6 C2.68 5.67 1.36 5.34 0 5 C0 3.35 0 1.7 0 0 Z " fill="#1D3119" transform="translate(133,266)"/>
<path d="M0 0 C0.66 0 1.32 0 2 0 C1.88541307 1.43836751 1.75790884 2.87570966 1.625 4.3125 C1.55539062 5.11300781 1.48578125 5.91351563 1.4140625 6.73828125 C1 9 1 9 -1 12 C-1.02698189 10.37509046 -1.04638757 8.75005367 -1.0625 7.125 C-1.07410156 6.22007812 -1.08570313 5.31515625 -1.09765625 4.3828125 C-1 2 -1 2 0 0 Z " fill="#1C3016" transform="translate(284,199)"/>
<path d="M0 0 C1.32 0 2.64 0 4 0 C3.67 2.97 3.34 5.94 3 9 C0.87491756 5.81237635 0.4979837 3.73487777 0 0 Z " fill="#65A350" transform="translate(242,197)"/>
<path d="M0 0 C0.66 0 1.32 0 2 0 C1.67 2.97 1.34 5.94 1 9 C0.34 9 -0.32 9 -1 9 C-1.09765625 2.84765625 -1.09765625 2.84765625 -1 1 C-0.67 0.67 -0.34 0.34 0 0 Z " fill="#75B660" transform="translate(294,178)"/>
<path d="M0 0 C1.62490954 -0.02698189 3.24994633 -0.04638757 4.875 -0.0625 C5.77992188 -0.07410156 6.68484375 -0.08570313 7.6171875 -0.09765625 C10 0 10 0 12 1 C12 1.66 12 2.32 12 3 C10.35 3 8.7 3 7 3 C7 2.34 7 1.68 7 1 C4.69 1 2.38 1 0 1 C0 0.67 0 0.34 0 0 Z " fill="#78B857" transform="translate(314,144)"/>
<path d="M0 0 C3.96 0 7.92 0 12 0 C12 0.99 12 1.98 12 3 C10.68 3 9.36 3 8 3 C8 2.34 8 1.68 8 1 C5.36 1 2.72 1 0 1 C0 0.67 0 0.34 0 0 Z " fill="#7CB061" transform="translate(248,144)"/>
<path d="M0 0 C0.66 0 1.32 0 2 0 C2.66 2.31 3.32 4.62 4 7 C3.34 7 2.68 7 2 7 C2 6.34 2 5.68 2 5 C1.01 5.33 0.02 5.66 -1 6 C-0.67 4.02 -0.34 2.04 0 0 Z " fill="#7ABB68" transform="translate(150,212)"/>
<path d="M0 0 C2.85714286 5.71428571 2.85714286 5.71428571 3 8 C1.68 9.32 0.36 10.64 -1 12 C-0.67 8.04 -0.34 4.08 0 0 Z " fill="#71A85A" transform="translate(123,189)"/>
<path d="M0 0 C0.33 0.66 0.66 1.32 1 2 C3.02463255 2.65213292 3.02463255 2.65213292 5 3 C5 3.99 5 4.98 5 6 C4.01 6.33 3.02 6.66 2 7 C0.5393715 4.35261084 0 3.10551666 0 0 Z " fill="#0D210B" transform="translate(254,182)"/>
<path d="M0 0 C1.5625 1.1875 1.5625 1.1875 3 3 C2.8125 5.625 2.8125 5.625 2 8 C1.01 8.495 1.01 8.495 0 9 C-1.125 2.25 -1.125 2.25 0 0 Z " fill="#69C048" transform="translate(107,171)"/>
<path d="M0 0 C0.99 0 1.98 0 3 0 C3 1.32 3 2.64 3 4 C2.34 4 1.68 4 1 4 C0.67 5.32 0.34 6.64 0 8 C0 7.34 0 6.68 0 6 C-0.66 5.67 -1.32 5.34 -2 5 C-1.34 3.35 -0.68 1.7 0 0 Z " fill="#071305" transform="translate(161,167)"/>
<path d="M0 0 C1.231394 2.46278801 1.07159196 4.2795055 1 7 C0.34 7 -0.32 7 -1 7 C-1.33 7.99 -1.66 8.98 -2 10 C-2 7.03 -2 4.06 -2 1 C-1.34 0.67 -0.68 0.34 0 0 Z " fill="#5AA03E" transform="translate(168,152)"/>
<path d="M0 0 C1.5 1.1875 1.5 1.1875 3 3 C3.1875 5.6875 3.1875 5.6875 3 8 C2.34 8 1.68 8 1 8 C-0.35439668 5.29120665 -0.06501451 2.99066732 0 0 Z " fill="#7CB566" transform="translate(131,215)"/>
<path d="M0 0 C0.66 0 1.32 0 2 0 C2 1.65 2 3.3 2 5 C0.68 5.33 -0.64 5.66 -2 6 C-1.125 1.125 -1.125 1.125 0 0 Z " fill="#060D07" transform="translate(278,142)"/>
<path d="M0 0 C2 3.75 2 3.75 2 6 C1.34 6 0.68 6 0 6 C0.33 7.65 0.66 9.3 1 11 C0.34 11 -0.32 11 -1 11 C-1.14285714 3.57142857 -1.14285714 3.57142857 0 0 Z " fill="#65A052" transform="translate(267,220)"/>
<path d="M0 0 C1.32 0 2.64 0 4 0 C4 1.65 4 3.3 4 5 C2.68 4.67 1.36 4.34 0 4 C0 2.68 0 1.36 0 0 Z " fill="#0C0210" transform="translate(288,173)"/>
</svg>
